<svg width="119" height="34" xmlns="http://www.w3.org/2000/svg"><g fill-rule="nonzero" fill="#FFF"><path d="M56.237 16.639v5.815c-1.167.697-3.082 1.083-4.535 1.083-4.062 0-6.415-2.848-6.415-6.2 0-3.493 2.59-6.197 6.244-6.197 2.2 0 3.539.586 4.468 1.535l-1.148 1.214c-.984-.933-2.117-1.247-3.32-1.247-2.741 0-4.518 2.115-4.518 4.696 0 2.671 2.015 4.697 4.654 4.697 1.134 0 2.22-.216 2.946-.616V18.13h-2.658v-1.498l4.282.006z"/><path d="M51.702 23.665c-3.856 0-6.547-2.604-6.547-6.327 0-3.605 2.741-6.328 6.376-6.328 2.065 0 3.514.502 4.566 1.574l.084.087-1.326 1.401-.096-.088c-.86-.822-1.917-1.217-3.228-1.217-2.543 0-4.384 1.924-4.384 4.57 0 2.604 1.946 4.569 4.524 4.569 1.104 0 2.12-.206 2.814-.561v-3.083h-2.662v-1.759h4.543v6.02l-.058.036c-1.263.756-3.274 1.102-4.606 1.102v.004zm-.17-12.396c-3.55 0-6.116 2.553-6.116 6.069 0 3.573 2.585 6.068 6.286 6.068 1.274 0 3.182-.323 4.405-1.028V16.76h-4.023v1.233h2.658v3.494l-.065.034c-.732.411-1.828.635-3.01.635-2.727 0-4.785-2.073-4.785-4.827 0-2.796 1.956-4.825 4.65-4.825 1.333 0 2.419.39 3.312 1.196l.973-1.027c-.99-.96-2.357-1.406-4.286-1.406v.002zM61.744 15.139c2.32.03 4.179 1.899 4.159 4.182-.02 2.283-1.911 4.12-4.23 4.111-2.32-.01-4.196-1.863-4.196-4.146a4.119 4.119 0 0 1 1.254-2.95 4.253 4.253 0 0 1 3.013-1.197zm0 6.896c1.627 0 2.64-1.146 2.64-2.75 0-1.602-1.013-2.745-2.64-2.745-1.626 0-2.632 1.149-2.632 2.746 0 1.596 1.008 2.75 2.632 2.75z"/><path d="M61.744 23.564c-2.395-.02-4.322-1.945-4.309-4.303.014-2.358 1.964-4.26 4.36-4.254 2.395.007 4.333 1.92 4.334 4.279a4.222 4.222 0 0 1-1.28 3.045 4.36 4.36 0 0 1-3.105 1.233zm0-8.298c-2.25.026-4.055 1.839-4.037 4.054.018 2.215 1.852 3.998 4.103 3.989 2.25-.01 4.069-1.808 4.068-4.023a3.972 3.972 0 0 0-1.209-2.865 4.101 4.101 0 0 0-2.925-1.155zm0 6.899c-1.655 0-2.772-1.157-2.772-2.877 0-1.72 1.117-2.877 2.772-2.877 1.656 0 2.773 1.159 2.773 2.877 0 1.718-1.117 2.877-2.773 2.877zm0-5.497c-1.499 0-2.505 1.052-2.505 2.618 0 1.566 1.01 2.62 2.505 2.62 1.495 0 2.506-1.052 2.506-2.62s-1.01-2.618-2.506-2.618zM71.141 15.139c2.32.027 4.181 1.895 4.163 4.18-.018 2.283-1.91 4.122-4.23 4.113-2.32-.009-4.196-1.863-4.196-4.146 0-1.109.451-2.17 1.252-2.95a4.25 4.25 0 0 1 3.011-1.197zm0 6.896c1.626 0 2.639-1.146 2.639-2.75 0-1.602-1.013-2.745-2.639-2.745s-2.635 1.149-2.635 2.746c0 1.596 1.009 2.75 2.635 2.75z"/><path d="M71.141 23.564c-2.395-.02-4.323-1.945-4.309-4.303.014-2.358 1.963-4.26 4.36-4.254 2.395.007 4.333 1.92 4.333 4.279a4.224 4.224 0 0 1-1.28 3.044 4.362 4.362 0 0 1-3.104 1.234zm0-8.298c-2.25.027-4.054 1.84-4.035 4.055.018 2.215 1.853 3.998 4.103 3.988 2.25-.01 4.069-1.809 4.068-4.023a3.972 3.972 0 0 0-1.21-2.866 4.101 4.101 0 0 0-2.926-1.154zm0 6.899c-1.67 0-2.772-1.157-2.772-2.877 0-1.72 1.112-2.877 2.772-2.877 1.66 0 2.77 1.159 2.77 2.877 0 1.718-1.112 2.877-2.77 2.877zm0-5.497c-1.503 0-2.505 1.052-2.505 2.618 0 1.566 1.004 2.62 2.505 2.62s2.505-1.052 2.505-2.62-1.006-2.618-2.505-2.618zM84.738 23.235H83.21v-1.132h-.033c-.589.847-1.708 1.327-2.794 1.327-2.484 0-4.073-1.812-4.073-4.146 0-2.366 1.606-4.147 4.073-4.147 1.155 0 2.251.516 2.794 1.335h.033v-5.225h1.528v11.988zm-1.528-3.95c0-1.596-1.012-2.745-2.639-2.745-1.626 0-2.639 1.149-2.639 2.746 0 1.596 1.015 2.75 2.64 2.75 1.624 0 2.638-1.147 2.638-2.75z"/><path d="M80.383 23.564c-2.473 0-4.206-1.761-4.206-4.278 0-2.518 1.733-4.277 4.206-4.277a3.648 3.648 0 0 1 2.698 1.122V11.12h1.787v12.246H83.08v-.93a3.697 3.697 0 0 1-2.698 1.13zm0-8.298c-2.321 0-3.947 1.644-3.947 4.02 0 2.375 1.626 4.023 3.947 4.023 1.092 0 2.147-.501 2.687-1.278l.042-.055h.198l.032.129v1.003h1.263V11.374h-1.263v5.228h-.209l-.071-.062c-.514-.772-1.568-1.274-2.687-1.274h.008zm.188 6.899c-1.655 0-2.768-1.157-2.768-2.877 0-1.72 1.113-2.877 2.768-2.877 1.656 0 2.77 1.159 2.77 2.877 0 1.718-1.11 2.877-2.77 2.877zm0-5.497c-1.5 0-2.505 1.052-2.505 2.618 0 1.566 1.008 2.62 2.505 2.62 1.497 0 2.506-1.052 2.506-2.62s-1.007-2.618-2.506-2.618zM86.757 11.356h3.654c5.058 0 6.294 3.8 6.294 5.982 0 3.016-2.284 5.897-6.568 5.897h-3.38v-11.88zm1.627 10.381h1.52c2.74 0 5.075-1.483 5.075-4.4 0-1.5-.794-4.485-4.685-4.485h-1.91v8.885z"/><path d="M90.137 23.365h-3.51V11.228h3.784c5.075 0 6.424 3.84 6.424 6.11 0 2.994-2.297 6.027-6.698 6.027zm-3.259-.257h3.25c4.425 0 6.44-2.994 6.44-5.77 0-.6-.172-5.855-6.166-5.855h-3.524v11.625zm3.017-1.245h-1.651v-9.139h2.042c4.682 0 4.814 4.143 4.814 4.614 0 3.127-2.612 4.52-5.205 4.52v.005zm-1.39-.255h1.39c2.28 0 4.946-1.116 4.946-4.27 0-.446-.127-4.359-4.555-4.359h-1.781v8.63-.001zM97.897 16.308a4.777 4.777 0 0 1 3.178-1.17c2.367 0 3.35 1.267 3.35 2.631v4.034c-.005.48.018.96.067 1.438h-1.352c-.034-.398-.05-.797-.05-1.2h-.036c-.676 1.015-1.593 1.398-2.808 1.398-1.489 0-2.777-.822-2.777-2.363 0-2.03 1.98-2.732 4.418-2.732h1.117v-.334c0-.822-.61-1.667-1.912-1.667-1.167 0-1.73.487-2.284.902l-.91-.937zm4.303 3.124c-1.442 0-3.202.25-3.202 1.52 0 .896.678 1.278 1.728 1.278 1.691 0 2.284-1.233 2.284-2.297v-.501h-.81z"/><path d="M100.252 23.564c-1.712 0-2.906-1.027-2.906-2.495 0-1.85 1.614-2.86 4.547-2.86h.988v-.206c0-.74-.56-1.535-1.783-1.535-1.044 0-1.579.401-2.088.79l-.209.15-1.083-1.106.096-.09a4.889 4.889 0 0 1 3.26-1.203c2.569 0 3.481 1.424 3.481 2.76v4.034c-.007.474.016.948.069 1.42l.017.142h-1.622v-.117a13.182 13.182 0 0 1-.049-.866c-.643.806-1.52 1.182-2.714 1.182h-.004zm1.641-5.098c-1.958 0-4.286.45-4.286 2.603 0 1.548 1.33 2.24 2.645 2.24 1.253 0 2.088-.41 2.7-1.344l.04-.06h.208l.034.13c0 .358.012.717.041 1.073h1.088a12.57 12.57 0 0 1-.052-1.305v-4.034c0-1.21-.846-2.503-3.222-2.503a4.67 4.67 0 0 0-2.993 1.046l.737.754.02-.014c.522-.395 1.12-.843 2.253-.843 1.405 0 2.044.93 2.044 1.794v.463h-1.257zm-1.167 3.904c-1.196 0-1.858-.503-1.858-1.41 0-.752.578-1.644 3.34-1.644h.942v.63c0 1.12-.626 2.428-2.415 2.428l-.009-.004zm1.474-2.799c-1.403 0-3.073.239-3.073 1.39 0 .76.54 1.15 1.6 1.15 1.586 0 2.154-1.118 2.154-2.17v-.37h-.68zM110.728 16.639h-2.183v3.582c0 .881 0 1.814 1.15 1.814.375.016.747-.064 1.081-.232v1.367c-.352.205-1.064.263-1.367.263-2.353 0-2.384-1.416-2.384-2.672v-4.11h-1.762v-1.3h1.762v-2.23h1.52v2.217h2.183v1.3z"/><path d="M109.409 23.564c-2.518 0-2.518-1.623-2.518-2.811V16.76h-1.76v-1.558h1.76v-2.204h1.783v2.213h2.186v1.55h-2.186v3.451c0 1.05.071 1.685 1.021 1.685a2.07 2.07 0 0 0 1.017-.205l.209-.123v1.674l-.065.037c-.418.233-1.196.284-1.437.284h-.01zm-4.017-7.057h1.762v4.246c0 1.198 0 2.556 2.255 2.556.423 0 .842-.074 1.238-.222v-1.076c-.305.108-.628.16-.952.154-1.284 0-1.284-1.08-1.284-1.944v-3.714h2.188v-1.04h-2.188v-2.215h-1.253v2.216h-1.762v1.04h-.004zM112.22 16.308a4.769 4.769 0 0 1 3.18-1.17c2.368 0 3.341 1.267 3.341 2.631v4.034c-.006.48.017.96.069 1.438h-1.355c-.033-.398-.05-.797-.05-1.2h-.038c-.674 1.015-1.588 1.398-2.805 1.398-1.491 0-2.78-.822-2.78-2.363 0-2.03 1.982-2.732 4.418-2.732h1.117v-.334c0-.822-.607-1.667-1.91-1.667-1.167 0-1.727.487-2.296.902l-.892-.937zm4.304 3.124c-1.438 0-3.2.25-3.2 1.52 0 .896.678 1.278 1.726 1.278 1.691 0 2.284-1.233 2.284-2.297v-.501h-.81z"/><path d="M114.572 23.564c-1.714 0-2.908-1.027-2.908-2.495 0-1.85 1.616-2.86 4.547-2.86h.987v-.206c0-.74-.557-1.535-1.78-1.535-1.044 0-1.58.401-2.088.79l-.209.15-1.09-1.106.096-.09a4.904 4.904 0 0 1 3.274-1.203c2.568 0 3.48 1.424 3.48 2.76v4.034c-.006.474.016.948.065 1.42l.02.142h-1.622v-.117a16.88 16.88 0 0 1-.052-.866c-.64.806-1.518 1.182-2.714 1.182h-.006zm1.639-5.098c-1.954 0-4.284.45-4.284 2.603 0 1.548 1.326 2.24 2.645 2.24 1.253 0 2.088-.41 2.697-1.344l.042-.06h.209l.033.13c0 .358.015.717.04 1.073h1.088a13.098 13.098 0 0 1-.055-1.305v-4.034c0-1.21-.835-2.503-3.217-2.503a4.68 4.68 0 0 0-2.996 1.046l.74.754.018-.014c.524-.395 1.117-.843 2.255-.843 1.405 0 2.042.93 2.042 1.794v.463h-1.257zm-1.167 3.904c-1.199 0-1.856-.503-1.856-1.41 0-.752.576-1.644 3.34-1.644h.942v.63c0 1.12-.627 2.428-2.416 2.428l-.01-.004zm1.48-2.803c-1.4 0-3.069.239-3.069 1.39 0 .76.534 1.15 1.595 1.15 1.589 0 2.155-1.118 2.155-2.17v-.37h-.681z"/><path d="M22.716 17.005h-5.332c.007 1.75.288 3.488.836 5.153 2.57-.417 4.469-2.588 4.505-5.153M34.508 17.878c-.323 5.693-3.535 10.843-8.547 13.702a17.5 17.5 0 0 0 8.547 2.28V17.877z" opacity=".7"/><path d="M12.027 17.005H.211a16.75 16.75 0 0 0 5.027 11.918l8.351-8.22a5.264 5.264 0 0 1-1.564-3.698" opacity=".6"/><path d="M17.357 22.228a5.452 5.452 0 0 1-3.758-1.526l-8.35 8.22a17.318 17.318 0 0 0 12.127 4.931V22.228" opacity=".85"/><path d="M17.443 11.633V0A17.37 17.37 0 0 0 5.2 5.006l8.35 8.238a5.539 5.539 0 0 1 3.9-1.611" opacity=".95"/><path d="M12.025 16.93a5.3 5.3 0 0 1 1.518-3.686l-8.35-8.238A16.751 16.751 0 0 0 .2 16.925v.074h11.817v-.074" opacity=".7"/><path d="M21.155 13.197l8.35-8.22A17.328 17.328 0 0 0 17.44.007v11.632a5.437 5.437 0 0 1 3.712 1.564" opacity=".6"/><path d="M18.211 22.158a5.725 5.725 0 0 1-.835.07v11.633a17.382 17.382 0 0 0 8.595-2.28 16.823 16.823 0 0 1-7.75-9.423" opacity=".7"/><path d="M34.508 17.878v-.873H22.716c-.035 2.565-1.933 4.737-4.505 5.153a16.823 16.823 0 0 0 7.75 9.422c5.012-2.859 8.224-8.01 8.547-13.702" opacity=".98"/></g></svg>